<?xml version="1.0" encoding="UTF-8"?>
<!DOCTYPE svg PUBLIC "-//W3C//DTD SVG 1.1//EN" "http://www.w3.org/Graphics/SVG/1.1/DTD/svg11.dtd">
<!-- Creator: CorelDRAW -->
<svg xmlns="http://www.w3.org/2000/svg" xml:space="preserve" width="2048px" height="2048px" style="shape-rendering:geometricPrecision; text-rendering:geometricPrecision; image-rendering:optimizeQuality; fill-rule:evenodd; clip-rule:evenodd"
viewBox="0 0 2048 2048"
 xmlns:xlink="http://www.w3.org/1999/xlink">
 <defs>
  <style type="text/css">
   <![CDATA[
    .fil2 {fill:none}
    .fil17 {fill:#0277BD}
    .fil14 {fill:#039BE5}
    .fil11 {fill:#424242}
    .fil13 {fill:#558B2F}
    .fil1 {fill:#5664B0}
    .fil8 {fill:#6D4C41}
    .fil0 {fill:#7986CB}
    .fil9 {fill:#7CB342}
    .fil16 {fill:#BFEBEA}
    .fil5 {fill:#C62828}
    .fil12 {fill:#DCEDC8}
    .fil4 {fill:#E53935}
    .fil10 {fill:#FFB74D}
    .fil15 {fill:#FFD180}
    .fil6 {fill:#FFD54F}
    .fil7 {fill:#FFE082}
    .fil3 {fill:#FFFFFE;fill-rule:nonzero}
   ]]>
  </style>
   <clipPath id="id0">
    <path d="M1024 -0.0011811c565.541,0 1024,458.461 1024,1024 0,565.541 -458.461,1024 -1024,1024 -565.541,0 -1024,-458.461 -1024,-1024 0,-565.541 458.461,-1024 1024,-1024z"/>
   </clipPath>
 </defs>
 <g id="Layer_x0020_1">
  <metadata id="CorelCorpID_0Corel-Layer"/>
  <path class="fil0" d="M1024 -0.0011811c565.541,0 1024,458.461 1024,1024 0,565.541 -458.461,1024 -1024,1024 -565.541,0 -1024,-458.461 -1024,-1024 0,-565.541 458.461,-1024 1024,-1024z"/>
  <g style="clip-path:url(#id0)">
   <g id="_385673488">
    <g>
     <polygon id="_2854583601" class="fil1" points="1470.08,503.932 2605.97,1639.81 2610.1,1644.83 2613.99,1650.01 2617.64,1655.34 2621.07,1660.77 2624.26,1666.3 2627.22,1671.89 2629.95,1677.53 2632.46,1683.19 2634.74,1688.84 2636.8,1694.47 2638.64,1700.04 2640.26,1705.54 2641.66,1710.94 2642.84,1716.22 2643.82,1721.36 2644.58,1726.32 2645.13,1731.09 2645.47,1735.65 1509.59,599.765 1509.25,595.211 1508.7,590.441 1507.94,585.476 1506.96,580.342 1505.78,575.061 1504.37,569.66 1502.76,564.159 1500.92,558.584 1498.86,552.957 1496.58,547.303 1494.07,541.645 1491.34,536.007 1488.38,530.413 1485.19,524.887 1481.76,519.453 1478.11,514.132 1474.21,508.95 "/>
     <polygon id="_285458504" class="fil1" points="1510.52,600.628 2646.4,1736.51 2647.25,1737.57 2648.01,1738.81 2648.68,1740.22 2649.26,1741.8 2649.75,1743.52 2650.15,1745.39 2650.45,1747.39 2650.66,1749.51 2650.76,1751.73 2650.77,1754.05 2650.67,1756.46 2650.46,1758.95 2650.15,1761.49 2649.72,1764.1 2649.19,1766.74 1513.3,630.862 1513.84,628.215 1514.26,625.612 1514.58,623.063 1514.78,620.578 1514.88,618.169 1514.88,615.847 1514.78,613.623 1514.57,611.507 1514.27,609.51 1513.87,607.641 1513.38,605.914 1512.8,604.339 1512.12,602.925 1511.36,601.685 "/>
     <polygon id="_285458816" class="fil1" points="1513.3,630.862 2649.19,1766.74 2648.46,1769.69 2647.64,1772.52 2646.71,1775.23 2645.71,1777.81 2644.62,1780.23 2643.47,1782.49 2642.27,1784.58 2641.01,1786.48 2639.71,1788.18 2638.38,1789.67 2637.03,1790.94 2635.67,1791.96 2634.3,1792.74 2632.95,1793.25 2631.6,1793.49 2630.28,1793.44 1494.4,657.554 1495.72,657.606 1497.06,657.37 1498.42,656.858 1499.79,656.082 1501.15,655.055 1502.5,653.791 1503.83,652.302 1505.13,650.601 1506.38,648.7 1507.59,646.612 1508.74,644.349 1509.83,641.924 1510.83,639.35 1511.75,636.641 1512.58,633.806 "/>
     <polygon id="_285459368" class="fil1" points="1494.4,657.554 2630.28,1793.44 2629.24,1797.09 2628.13,1800.72 2626.93,1804.33 2625.66,1807.92 2624.32,1811.48 2622.9,1815.01 2621.41,1818.52 2619.85,1821.99 2618.23,1825.42 2616.53,1828.82 2614.77,1832.17 2612.94,1835.48 2611.04,1838.74 2609.09,1841.95 2607.07,1845.11 2604.99,1848.21 2602.85,1851.25 2600.66,1854.23 2598.4,1857.15 2596.1,1860 2593.74,1862.79 2591.32,1865.49 2588.86,1868.13 2586.34,1870.69 2583.77,1873.16 2581.16,1875.56 2578.5,1877.86 2575.8,1880.08 2573.05,1882.21 2570.26,1884.24 2567.42,1886.17 2564.55,1888.01 1428.67,752.128 1431.54,750.292 1434.37,748.356 1437.17,746.325 1439.91,744.198 1442.62,741.98 1445.28,739.673 1447.89,737.28 1450.46,734.803 1452.97,732.247 1455.44,729.612 1457.85,726.903 1460.22,724.121 1462.52,721.27 1464.78,718.352 1466.97,715.369 1469.11,712.326 1471.19,709.224 1473.21,706.067 1475.16,702.857 1477.05,699.596 1478.88,696.288 1480.65,692.936 1482.34,689.54 1483.97,686.106 1485.53,682.636 1487.02,679.132 1488.44,675.597 1489.78,672.034 1491.05,668.445 1492.25,664.834 1493.36,661.203 "/>
     <polygon id="_285459200" class="fil1" points="1428.67,752.128 2564.55,1888.01 2564.55,1911.31 1428.67,775.423 "/>
     <polygon id="_285459152" class="fil1" points="1457.23,803.734 2593.11,1939.62 2594.42,1953.78 1458.54,817.899 "/>
     <polygon id="_285458864" class="fil1" points="1271.79,657.57 2407.67,1793.45 2406.36,1793.48 2405.02,1793.22 2403.67,1792.69 2402.31,1791.9 2400.96,1790.87 2399.62,1789.6 1263.73,653.713 1265.07,654.984 1266.43,656.02 1267.79,656.809 1269.14,657.338 1270.48,657.596 "/>
     <polygon id="_285459224" class="fil1" points="1565.01,953.863 2700.89,2089.74 2594.64,2089.74 1458.76,953.863 "/>
     <polygon id="_285458912" class="fil1" points="636.113,951.01 1771.99,2086.89 1618.87,2086.89 482.986,951.01 "/>
     <polygon id="_285459008" class="fil1" points="618.463,750.453 1754.34,1886.34 1751.49,1884.51 1748.67,1882.59 1745.9,1880.57 1743.16,1878.45 1740.47,1876.25 1737.83,1873.95 1735.23,1871.58 1732.68,1869.11 596.801,733.232 599.351,735.694 601.949,738.073 604.594,740.366 607.282,742.57 610.015,744.684 612.791,746.705 615.608,748.628 "/>
     <polygon id="_285459512" class="fil1" points="948.51,1429.63 2084.39,2565.51 2067.38,2561.01 2050.67,2555.81 2034.26,2549.94 2018.18,2543.41 2002.44,2536.25 1987.05,2528.46 1972.04,2520.06 1957.42,2511.06 1943.2,2501.5 1929.41,2491.37 1916.06,2480.7 1903.15,2469.51 767.273,1333.62 780.174,1344.82 793.529,1355.49 807.323,1365.62 821.539,1375.18 836.161,1384.17 851.172,1392.57 866.557,1400.36 882.298,1407.53 898.38,1414.06 914.787,1419.93 931.503,1425.12 "/>
     <polygon id="_285459776" class="fil1" points="1224.62,1584 2360.5,2719.88 1959.26,2719.88 823.377,1584 "/>
     <polygon id="_285459560" class="fil1" points="553.111,656.444 1688.99,1792.33 1687.69,1792.35 1686.36,1792.09 1685.01,1791.56 1683.66,1790.78 1682.32,1789.75 1680.98,1788.48 545.102,652.602 546.435,653.866 547.78,654.897 549.13,655.682 550.474,656.21 551.804,656.468 "/>
     <polygon id="_285459656" class="fil1" points="751.12,501.069 1887,1636.95 1891.41,1641.72 1895.55,1646.67 1899.42,1651.78 1903.02,1657.03 1906.35,1662.41 1909.41,1667.89 1912.21,1673.46 1914.73,1679.09 1917,1684.78 1918.99,1690.48 1920.72,1696.2 1922.18,1701.91 1923.38,1707.59 1924.32,1713.22 1924.99,1718.78 1925.4,1724.25 1925.55,1729.62 1925.43,1734.87 789.55,598.987 789.664,593.742 789.518,588.371 789.108,582.896 788.436,577.334 787.501,571.705 786.302,566.026 784.837,560.319 783.108,554.601 781.114,548.893 778.854,543.212 776.326,537.578 773.532,532.011 770.469,526.53 767.138,521.152 763.538,515.899 759.669,510.787 755.531,505.838 "/>
     <polygon id="_285459440" class="fil1" points="790.47,599.847 1926.35,1735.73 1927.19,1736.78 1927.94,1738.02 1928.61,1739.42 1929.19,1740.99 1929.67,1742.71 1930.07,1744.56 1930.37,1746.55 1930.57,1748.65 1930.67,1750.86 1930.68,1753.17 1930.58,1755.56 1930.37,1758.03 1930.06,1760.56 1929.64,1763.14 1929.11,1765.77 793.224,629.891 793.757,627.262 794.177,624.676 794.49,622.144 794.695,619.676 794.795,617.285 794.793,614.978 794.689,612.768 794.486,610.665 794.186,608.68 793.792,606.824 793.305,605.106 792.727,603.54 792.061,602.134 791.307,600.899 "/>
     <polygon id="_285459584" class="fil1" points="793.224,629.891 1929.11,1765.77 1928.39,1768.7 1927.56,1771.52 1926.65,1774.22 1925.65,1776.77 1924.57,1779.19 1923.42,1781.44 1922.22,1783.51 1920.97,1785.4 1919.68,1787.09 1918.36,1788.57 1917.02,1789.83 1915.66,1790.85 1914.3,1791.62 1912.95,1792.13 1911.62,1792.36 1910.3,1792.31 774.423,656.426 775.736,656.48 777.071,656.246 778.423,655.738 779.78,654.968 781.134,653.949 782.477,652.692 783.798,651.212 785.089,649.521 786.34,647.63 787.542,645.553 788.688,643.303 789.765,640.891 790.766,638.333 791.683,635.638 792.505,632.82 "/>
     <polygon id="_285452384" class="fil1" points="774.423,656.426 1910.3,1792.31 1909.27,1795.94 1908.16,1799.55 1906.98,1803.13 1905.71,1806.7 1904.38,1810.25 1902.97,1813.76 1901.49,1817.24 1899.94,1820.69 1898.32,1824.11 1896.63,1827.48 1894.88,1830.81 1893.06,1834.1 1891.18,1837.34 1889.24,1840.53 1887.23,1843.67 1885.16,1846.76 1883.04,1849.78 1880.86,1852.75 1878.62,1855.65 1876.32,1858.48 1873.98,1861.25 1871.58,1863.94 1869.13,1866.56 1866.62,1869.1 1864.07,1871.56 1861.48,1873.94 1858.83,1876.24 1856.14,1878.44 1853.41,1880.55 1850.64,1882.58 1847.82,1884.5 1844.96,1886.32 709.081,750.442 711.937,748.618 714.754,746.693 717.53,744.673 720.262,742.558 722.951,740.353 725.595,738.06 728.193,735.681 730.743,733.219 733.244,730.678 735.696,728.059 738.096,725.365 740.443,722.6 742.737,719.766 744.976,716.865 747.159,713.9 749.284,710.875 751.349,707.791 753.355,704.652 755.3,701.461 757.182,698.22 758.999,694.932 760.752,691.599 762.439,688.224 764.058,684.81 765.608,681.36 767.088,677.877 768.497,674.363 769.832,670.821 771.094,667.252 772.281,663.663 773.391,660.054 "/>
     <polygon id="_285452504" class="fil1" points="709.081,750.442 1844.96,1886.32 1844.96,1909.49 709.081,773.61 "/>
     <polygon id="_285451904" class="fil1" points="709.081,773.61 1844.96,1909.49 1847.32,1911.83 711.438,775.945 "/>
     <polygon id="_285452456" class="fil1" points="1458.76,953.863 2594.64,2089.74 2594.99,2091.89 2595.34,2094.03 2595.68,2096.17 2596,2098.33 2596.31,2100.48 2596.61,2102.64 2596.9,2104.8 2597.18,2106.96 2597.45,2109.13 2597.71,2111.3 2597.96,2113.48 2598.19,2115.65 2598.42,2117.84 2598.63,2120.02 2598.83,2122.21 2599.02,2124.4 2599.2,2126.6 2599.37,2128.79 2599.52,2130.99 2599.67,2133.2 2599.8,2135.41 2599.92,2137.62 2600.04,2139.83 2600.14,2142.04 2600.22,2144.26 2600.3,2146.49 2600.36,2148.71 2600.41,2150.94 2600.46,2153.17 2600.49,2155.4 2600.5,2157.64 2600.51,2159.88 2600.07,2179.32 2598.74,2198.52 2596.57,2217.48 2593.55,2236.17 2589.72,2254.57 2585.09,2272.67 2579.68,2290.44 2573.51,2307.87 2566.6,2324.93 2558.97,2341.61 2550.64,2357.88 2541.63,2373.74 2531.95,2389.15 2521.63,2404.1 2510.69,2418.57 2499.14,2432.54 2487,2445.99 2474.3,2458.9 2461.06,2471.25 2447.29,2483.02 2433.01,2494.2 2418.24,2504.76 2403,2514.69 2387.32,2523.96 2371.2,2532.56 2354.67,2540.46 2337.76,2547.65 2320.47,2554.11 2302.83,2559.82 2284.85,2564.75 2266.56,2568.9 2247.98,2572.23 1112.1,1436.35 1130.68,1433.02 1148.97,1428.87 1166.95,1423.94 1184.59,1418.23 1201.88,1411.77 1218.79,1404.58 1235.32,1396.68 1251.44,1388.08 1267.12,1378.81 1282.36,1368.88 1297.13,1358.32 1311.41,1347.14 1325.18,1335.37 1338.42,1323.01 1351.12,1310.1 1363.26,1296.65 1374.8,1282.68 1385.75,1268.22 1396.07,1253.27 1405.74,1237.86 1414.76,1222 1423.09,1205.73 1430.72,1189.05 1437.63,1171.99 1443.8,1154.56 1449.21,1136.79 1453.84,1118.69 1457.67,1100.29 1460.69,1081.6 1462.86,1062.64 1464.18,1043.43 1464.63,1024 1464.62,1021.76 1464.6,1019.52 1464.58,1017.29 1464.53,1015.06 1464.48,1012.83 1464.42,1010.6 1464.34,1008.38 1464.25,1006.16 1464.15,1003.95 1464.04,1001.73 1463.92,999.523 1463.79,997.315 1463.64,995.111 1463.49,992.911 1463.32,990.713 1463.14,988.518 1462.95,986.326 1462.75,984.139 1462.53,981.954 1462.31,979.772 1462.07,977.594 1461.83,975.42 1461.57,973.248 1461.3,971.081 1461.02,968.916 1460.73,966.754 1460.43,964.596 1460.12,962.443 1459.79,960.292 1459.46,958.145 1459.11,956.003 "/>
     <polygon id="_285452288" class="fil1" points="1168.77,1470.55 2304.65,2606.43 2307.37,2609.05 2309.99,2611.81 2312.53,2614.69 2314.99,2617.7 2317.37,2620.83 2319.67,2624.09 2321.9,2627.45 2324.07,2630.93 2326.18,2634.53 2328.23,2638.23 2330.23,2642.03 2332.18,2645.94 2334.08,2649.94 2335.95,2654.04 2337.79,2658.24 2339.59,2662.52 2341.37,2666.89 2343.13,2671.35 2344.87,2675.89 2346.59,2680.5 2348.31,2685.19 2350.03,2689.96 2351.75,2694.79 2353.47,2699.69 2355.2,2704.65 2356.95,2709.67 2358.71,2714.75 2360.5,2719.88 1224.62,1584 1222.83,1578.87 1221.07,1573.79 1219.32,1568.76 1217.59,1563.8 1215.87,1558.9 1214.15,1554.07 1212.43,1549.31 1210.71,1544.62 1208.98,1540.01 1207.24,1535.47 1205.49,1531.01 1203.71,1526.64 1201.91,1522.36 1200.07,1518.16 1198.2,1514.06 1196.3,1510.06 1194.35,1506.15 1192.35,1502.34 1190.3,1498.64 1188.19,1495.05 1186.02,1491.57 1183.79,1488.2 1181.48,1484.95 1179.11,1481.82 1176.65,1478.81 1174.11,1475.93 1171.48,1473.17 "/>
     <polygon id="_285452192" class="fil1" points="1521.52,858.498 2657.4,1994.38 2659.63,1997.11 2661.79,1999.95 2663.88,2002.89 2665.9,2005.95 2667.87,2009.11 2669.78,2012.36 2671.64,2015.72 2673.45,2019.17 2675.22,2022.71 2676.94,2026.34 2678.64,2030.06 2680.3,2033.86 2681.94,2037.74 2683.55,2041.71 2685.14,2045.75 2686.72,2049.86 2688.29,2054.04 2689.84,2058.3 2691.4,2062.61 2692.96,2066.99 2694.52,2071.43 2696.09,2075.93 2697.67,2080.49 2699.27,2085.09 2700.89,2089.74 1565.01,953.863 1563.39,949.208 1561.79,944.603 1560.21,940.05 1558.64,935.552 1557.08,931.111 1555.52,926.73 1553.96,922.413 1552.4,918.161 1550.84,913.977 1549.26,909.864 1547.67,905.825 1546.05,901.861 1544.42,897.977 1542.76,894.174 1541.06,890.456 1539.33,886.824 1537.57,883.283 1535.75,879.833 1533.9,876.479 1531.98,873.223 1530.02,870.066 1527.99,867.012 1525.91,864.066 1523.75,861.226 "/>
    </g>
    <path id="_385673464" class="fil1" d="M1256.7 599.781c-2.63268,-55.539 39.567,-135.782 129.64,-135.782 82.9323,0 120.696,88.4339 123.254,135.767 5.16496,4.06063 6.87166,16.8839 3.71103,31.0961 -3.55985,15.9791 -11.948,27.7618 -18.9024,26.6929 -10.6595,38.9965 -34.8756,75.5375 -65.7331,94.5733l0 23.2949 28.5579 28.311 1.30984 14.165c13.3701,6.17008 28.1858,14.2701 45.065,24.8398 30.8221,19.3004 43.9949,61.2213 61.4126,111.124l-106.257 0c3.85866,22.8036 5.87126,46.2331 5.87126,70.1351 0,208.46 -152.818,381.17 -352.527,412.354 13.4445,6.48071 28.2107,14.7 44.7815,25.076 33.9969,21.2882 48.5268,67.5284 67.7386,122.573l-401.244 0c19.3051,-54.8398 34.0311,-100.739 67.6619,-122.573 21.998,-14.2831 40.7457,-24.5445 57.4713,-31.7977 -182.909,-44.3398 -318.757,-209.092 -318.757,-405.632 0,-24.8988 2.1815,-49.2874 6.36024,-72.9875l-153.126 0c17.3988,-49.4268 30.6721,-90.7973 60.9827,-110.476 16.7138,-10.852 31.3465,-19.1268 44.5595,-25.3748l1.23898 -13.4043 28.5697 -28.3193 0.125197 0.0767717 0.0011811 -23.0599c-30.6768,-18.9225 -54.7536,-55.2437 -65.3528,-94.0087 -6.89174,0.902363 -15.1536,-10.7634 -18.6685,-26.5536 -3.14173,-14.126 -1.44449,-26.8725 3.68622,-30.913 2.54292,-47.0575 40.0843,-134.979 122.537,-134.979 89.5477,0 131.502,79.7729 128.884,134.988 5.12363,4.05118 6.81378,16.7882 3.67441,30.9036 -3.54095,15.8917 -11.8866,27.6083 -18.8008,26.5358 -10.5945,38.7674 -34.6654,75.0898 -65.3422,94.0158l0 23.1673 2.3563 2.33504c76.0394,-102.755 198.108,-169.386 335.753,-169.386 85.3347,0 164.677,25.6193 230.777,69.5741 -2.38937,-6.08386 -4.45985,-12.2894 -6.17599,-18.5634 -6.93308,0.921261 -15.248,-10.8177 -18.7854,-26.7083 -3.15709,-14.1945 -1.4563,-27.0036 3.69213,-31.0807z"/>
   </g>
  </g>
  <path class="fil2" d="M1024 -0.0011811c565.541,0 1024,458.461 1024,1024 0,565.541 -458.461,1024 -1024,1024 -565.541,0 -1024,-458.461 -1024,-1024 0,-565.541 458.461,-1024 1024,-1024z"/>
  <path class="fil3" d="M1047.19 582.56c-8.42127,0 -16.1469,4.37244 -20.5252,11.5559 -9.67678,15.9744 1.86614,36.4441 20.5252,36.4441l2.54764 0.00826772 2.54292 0.0236221 2.54292 0.0401575 2.53347 0.056693 2.52992 0.0720473 2.52992 0.0874016 2.51929 0.103937 2.52047 0.120473 2.51575 0.134646 2.50512 0.151181 2.5063 0.167717 2.50512 0.183071 2.49685 0.196063 2.49095 0.21378 2.48622 0.227953 2.47914 0.245669 2.48268 0.259843 2.58662 0.287008c19.5898,2.0941 33.267,-19.0878 23.2358,-36.0756 -3.88819,-6.58465 -10.5083,-10.7799 -18.0862,-11.648l-2.58662 -0.287008 -2.77559 -0.290551 -2.78622 -0.274016 -2.79095 -0.256299 -2.79567 -0.239764 -2.79921 -0.222047 -2.79803 -0.204331 -2.80866 -0.186614 -2.81693 -0.170079 -2.81575 -0.151181 -2.82047 -0.134646 -2.8311 -0.115748 -2.82756 -0.0992127 -2.83701 -0.0814961 -2.84055 -0.0614174 -2.84055 -0.0448819 -2.84764 -0.0283465 -2.85236 -0.00826772zm-74.2193 54.9863c19.3228,-3.74528 26.1603,-27.7772 11.7697,-41.1969 -5.72245,-5.21339 -13.1941,-7.36064 -20.8099,-5.94331l-0.282284 0.0531496 -2.69764 0.525591 -2.69528 0.542126 -2.69646 0.559843 -2.68583 0.576378 -2.6811 0.592914 -2.67402 0.608268 -2.66929 0.624804 -2.66221 0.641339 -2.65158 0.656693 -2.64803 0.672048 -2.64331 0.688583 -2.63268 0.703938 -2.63504 0.720473 -2.62205 0.737008 -2.61614 0.751182 -2.61024 0.768898 -2.60197 0.78189 -2.59606 0.799607 -1.2685 0.399213c-8.63859,2.76496 -14.7709,9.89292 -16.3878,18.789 -2.92441,17.8358 13.6843,32.3362 30.9225,26.9575l0.989765 -0.311811 2.3126 -0.712205 2.31851 -0.696851 2.32205 -0.683859 2.33032 -0.668504 2.33622 -0.656693 2.3374 -0.640158 2.35158 -0.628347 2.3504 -0.612993 2.35984 -0.598819 2.36811 -0.585827 2.36929 -0.570473 2.37402 -0.5563 2.3811 -0.542126 2.38583 -0.526772 2.39292 -0.512599 2.3941 -0.498426 2.40473 -0.483071 2.41418 -0.47126 0.282284 -0.0531496zm-163.68 73.0595c15.5303,-11.9469 11.0032,-36.437 -7.80119,-42.0626 -7.45985,-2.14961 -15.2197,-0.740552 -21.4051,3.97205l-1.25669 0.957875 -2.1 1.62047 -2.08701 1.62992 -2.07992 1.6441 -2.07047 1.65709 -2.0563 1.66654 -2.04921 1.68071 -2.03977 1.6937 -2.02795 1.70433 -2.01378 1.71378 -2.00669 1.72677 -1.99961 1.74213 -1.98662 1.75276 -1.97599 1.76339 -1.96417 1.77638 -1.95236 1.78465 -1.94055 1.79646 -1.9311 1.80709 -1.9252 1.82362 -1.05709 1.01339c-15.2929,14.9681 -5.16969,40.741 16.2366,41.2677 6.43111,0.105118 12.4512,-2.27835 17.0941,-6.7252l0.849213 -0.814961 1.71024 -1.62047 1.72559 -1.61575 1.73504 -1.60512 1.74449 -1.59567 1.75158 -1.58268 1.76102 -1.57205 1.76929 -1.56142 1.77756 -1.54843 1.79173 -1.54252 1.80118 -1.53189 1.80827 -1.52008 1.81772 -1.50945 1.8248 -1.49646 1.83898 -1.48937 1.8437 -1.47756 1.85315 -1.46457 1.86496 -1.45748 1.87087 -1.44331 1.25669 -0.957875zm-114.496 138.229c3.85985,-7.85434 3.23977,-16.8579 -1.60866,-24.1311 -10.3996,-15.2221 -33.0933,-13.6583 -41.3764,2.76732l-0.16063 0.32126 -1.18465 2.40236 -1.16929 2.40827 -1.1563 2.42008 -1.13976 2.42244 -1.12677 2.43071 -1.11496 2.44606 -1.09606 2.44488 -1.08425 2.45669 -1.07008 2.46732 -1.05591 2.47559 -1.03819 2.47677 -1.0252 2.48504 -1.01221 2.49921 -0.99567 2.50512 -0.980316 2.50866 -0.964961 2.51457 -0.951969 2.5252 -0.937796 2.53819 -0.700394 1.92992c-6.62717,18.6768 10.7823,36.854 29.7437,31.0193 7.25197,-2.31378 12.8339,-7.63583 15.4335,-14.8004l0.598819 -1.65118 0.831497 -2.25 0.848032 -2.24882 0.861024 -2.24528 0.874016 -2.23701 0.887009 -2.22874 0.89882 -2.21811 0.914174 -2.21811 0.927166 -2.21221 0.937796 -2.19921 0.951969 -2.19331 0.966142 -2.18977 0.980316 -2.18504 0.987402 -2.16969 1.0063 -2.16851 1.01693 -2.16496 1.02874 -2.14843 1.04173 -2.14606 1.05473 -2.1378 0.16063 -0.32126zm-41.041 174.568c0,-8.42127 -4.37244,-16.1469 -11.5559,-20.5252 -15.9744,-9.67678 -36.4441,1.86614 -36.4441,20.5252l-0.0011811 0.595276 0.00826772 2.85236 0.0283465 2.84764 0.0448819 2.84055 0.0614174 2.84055 0.0814961 2.83701 0.0992127 2.82756 0.115748 2.8311 0.134646 2.82047 0.151181 2.81575 0.170079 2.81693 0.186614 2.80866 0.204331 2.79803 0.222047 2.79921 0.239764 2.79567 0.256299 2.79095 0.274016 2.78622 0.290551 2.77559 0.238583 2.14488c0.950788,8.29961 6.0378,15.3414 13.5473,18.9591 17.1177,8.01851 36.1465,-5.65867 34.1433,-24.4063l-0.205512 -1.84725 -0.259843 -2.48268 -0.245669 -2.47914 -0.227953 -2.48622 -0.21378 -2.49095 -0.196063 -2.49685 -0.183071 -2.50512 -0.167717 -2.5063 -0.151181 -2.50512 -0.134646 -2.51575 -0.120473 -2.52047 -0.103937 -2.51929 -0.0874016 -2.52992 -0.0720473 -2.52992 -0.056693 -2.53347 -0.0401575 -2.54292 -0.0236221 -2.54292 -0.00826772 -2.54764 0.0011811 -0.595276zm40.513 174.692c-8.6693,-17.191 -32.752,-17.8748 -42.3662,-1.16811 -3.94725,7.03819 -4.17992,15.2858 -0.618898,22.5319l0.367323 0.745276 1.19882 2.39173 1.20945 2.3811 1.22717 2.37756 1.24016 2.36693 1.25315 2.35866 1.26969 2.35276 1.27795 2.33622 1.29567 2.33622 1.30984 2.32441 1.32047 2.31496 1.33937 2.31024 1.34646 2.29488 1.36181 2.28662 1.3748 2.27953 1.39016 2.27244 1.40433 2.26299 1.41614 2.25355 1.42677 2.24055 1.04055 1.61221c9.35788,14.2973 30.0083,14.6102 39.841,0.623623 5.55355,-8.09292 5.74134,-18.5126 0.411024,-26.7709l-0.882284 -1.3689 -1.27559 -2.00197 -1.2626 -2.00788 -1.24843 -2.01496 -1.23662 -2.02205 -1.22599 -2.0315 -1.21536 -2.04331 -1.20473 -2.04921 -1.18819 -2.05276 -1.17874 -2.06457 -1.16575 -2.06929 -1.15158 -2.07638 -1.14567 -2.09291 -1.12795 -2.09055 -1.11614 -2.10118 -1.10551 -2.10945 -1.09016 -2.11536 -1.08189 -2.12599 -1.06654 -2.13189 -0.367323 -0.745276zm113.962 138.486c-13.3134,-10.0169 -32.3339,-3.90118 -37.3996,11.9634 -2.95748,9.77599 0.271654,20.0941 8.42245,26.3044l1.68543 1.28386 2.12008 1.59449 2.12953 1.58268 2.1378 1.56851 2.14843 1.55788 2.15906 1.54488 2.16969 1.53307 2.17559 1.51654 2.18386 1.50591 2.20158 1.49764 2.20276 1.47756 2.21575 1.46811 2.22992 1.45866 2.23229 1.43976 2.24055 1.42677 2.25709 1.41969 2.25945 1.39961 2.2689 1.38898 2.28307 1.37717 0.680315 0.4063c7.33347,4.34882 16.4941,4.46103 23.9315,0.290551 16.1362,-9.04843 16.3914,-32.1862 0.498426,-41.6103l-0.437008 -0.259843 -2.02795 -1.22362 -2.02559 -1.24016 -2.01851 -1.25079 -2.00433 -1.25906 -2.00197 -1.27559 -1.9937 -1.28622 -1.97953 -1.29331 -1.9748 -1.30984 -1.9689 -1.32165 -1.95354 -1.32756 -1.95236 -1.34528 -1.9441 -1.35591 -1.9311 -1.36536 -1.9252 -1.37717 -1.91457 -1.3878 -1.90866 -1.40079 -1.89803 -1.41024 -1.88858 -1.42205 -1.68543 -1.28386zm163.572 73.6442c-16.8957,-3.14292 -31.3725,11.5713 -28.0276,28.4362 2.05158,9.54686 9.3756,16.8414 18.9874,18.704l0.887009 0.172441 2.71181 0.511418 2.71772 0.494882 2.72362 0.477166 2.72362 0.459449 2.72717 0.444095 2.74252 0.427559 2.7437 0.409843 2.74252 0.393307 2.75906 0.376772 2.75788 0.359055 2.7626 0.34252 2.77323 0.325985 2.77087 0.308268 2.77795 0.290551 2.78622 0.274016 2.78977 0.256299 2.79567 0.239764 2.55355 0.20315c19.0051,1.45039 32.0221,-18.861 22.8189,-35.5524 -3.90237,-7.07717 -11.1319,-11.6965 -19.1835,-12.3106l-2.24882 -0.177165 -2.49095 -0.21378 -2.48504 -0.227953 -2.4815 -0.245669 -2.48032 -0.259843 -2.47559 -0.275197 -2.46614 -0.288189 -2.46496 -0.307087 -2.46024 -0.318898 -2.44961 -0.336614 -2.45433 -0.350788 -2.4437 -0.364961 -2.43307 -0.380315 -2.43898 -0.396851 -2.43307 -0.409843 -2.42126 -0.425197 -2.41536 -0.438189 -2.41181 -0.454725 -0.887009 -0.172441zm179.267 -6.64134c-12.3862,3.51142 -19.8473,15.9165 -16.976,28.4929 3.04843,13.35 16.6299,21.391 29.8075,17.7591l1.50591 -0.412205 2.62087 -0.735827 2.61496 -0.751182 2.61024 -0.767717 2.60433 -0.783071 2.59725 -0.799607 2.58544 -0.812599 2.58425 -0.830316 2.57717 -0.844489 2.57126 -0.862205 2.56063 -0.875198 2.55118 -0.890552 2.54528 -0.904725 2.54055 -0.921261 2.53819 -0.937796 2.5252 -0.951969 2.51457 -0.964961 2.50866 -0.980316 2.50512 -0.99567 0.470079 -0.191339c9.4441,-3.90237 15.3874,-13.1858 14.8973,-23.4012 -0.937796,-16.6087 -17.6327,-27.2268 -33.0579,-21.0319l-0.188977 0.0779528 -2.22874 0.887009 -2.23701 0.874016 -2.24528 0.861024 -2.24882 0.848032 -2.25 0.831497 -2.26181 0.819686 -2.27126 0.807875 -2.27717 0.793701 -2.28189 0.780709 -2.28543 0.765355 -2.29134 0.752363 -2.29843 0.73819 -2.30906 0.725197 -2.31142 0.712205 -2.31614 0.69567 -2.32441 0.68504 -2.3315 0.668504 -2.3374 0.657875 -1.50591 0.412205zm157.589 -85.5934c-12.5102,11.3504 -9.87639,31.5331 5.17205,39.2611 8.863,4.47166 19.5095,3.08859 26.9044,-3.55158l1.31339 -1.17165 1.96417 -1.77638 1.95236 -1.78465 1.94055 -1.79646 1.9311 -1.80709 1.9252 -1.82362 1.91103 -1.83307 1.89921 -1.8437 1.88622 -1.85433 1.87795 -1.86614 1.86614 -1.87795 1.85433 -1.88622 1.8437 -1.89921 1.83307 -1.91103 1.82362 -1.9252 1.80709 -1.9311 1.79646 -1.94055 1.78465 -1.95236 1.77638 -1.96417 0.875198 -0.981497c8.81694,-10.0323 7.90394,-25.154 -2.14252,-33.9827 -10.024,-8.70827 -24.9,-7.74095 -33.763,2.12835l-0.679134 0.759449 -1.58268 1.75158 -1.59567 1.74449 -1.60512 1.73504 -1.61575 1.72559 -1.62047 1.71024 -1.63465 1.70315 -1.64291 1.6937 -1.65591 1.68543 -1.66299 1.6748 -1.6748 1.66299 -1.68543 1.65591 -1.6937 1.64291 -1.70315 1.63465 -1.71024 1.62047 -1.72559 1.61575 -1.73504 1.60512 -1.74449 1.59567 -1.75158 1.58268 -1.31339 1.17165zm103.446 -146.621c-3.21969,8.01615 -1.88622,17.0244 3.43229,23.8122 11.439,14.4496 34.2496,11.1602 41.1142,-5.93268l0.356693 -0.879922 0.99567 -2.50512 0.980316 -2.50866 0.964961 -2.51457 0.951969 -2.5252 0.937796 -2.53819 0.921261 -2.54055 0.904725 -2.54528 0.890552 -2.55118 0.875198 -2.56063 0.862205 -2.57126 0.844489 -2.57717 0.830316 -2.58425 0.812599 -2.58544 0.799607 -2.59725 0.783071 -2.60433 0.767717 -2.61024 0.751182 -2.61496 0.735827 -2.62087 0.297638 -1.08189c4.96181,-18.5351 -12.5728,-34.9949 -30.7866,-29.028 -7.7067,2.65748 -13.3784,8.61969 -15.548,16.4941l-0.214961 0.784253 -0.657875 2.3374 -0.668504 2.3315 -0.68504 2.32441 -0.69567 2.31614 -0.712205 2.31142 -0.725197 2.30906 -0.73819 2.29843 -0.752363 2.29134 -0.765355 2.28543 -0.780709 2.28189 -0.793701 2.27717 -0.807875 2.27126 -0.819686 2.26181 -0.831497 2.25 -0.848032 2.24882 -0.861024 2.24528 -0.874016 2.23701 -0.887009 2.22874 -0.356693 0.879922zm27.4016 -177.325c1.03228,13.5272 13.0347,23.4945 26.5205,22.0417 12.8717,-1.38662 22.3276,-12.7736 21.3425,-25.6795l-0.0248032 -0.344882 -0.222047 -2.79921 -0.239764 -2.79567 -0.256299 -2.79095 -0.274016 -2.78622 -0.290551 -2.77559 -0.308268 -2.77323 -0.325985 -2.77205 -0.34252 -2.7626 -0.359055 -2.75788 -0.376772 -2.75906 -0.393307 -2.74252 -0.409843 -2.74252 -0.427559 -2.74488 -0.444095 -2.72835 -0.459449 -2.72244 -0.477166 -2.72126 -0.494882 -2.72008 -0.511418 -2.71181 -0.0874016 -0.442914c-2.99646,-14.8689 -18.6721,-23.2831 -32.7154,-17.5217 -10.6146,4.35473 -16.5461,15.6154 -14.3705,26.8429l0.0330709 0.164173 0.454725 2.40945 0.438189 2.41536 0.425197 2.42362 0.409843 2.43189 0.396851 2.4378 0.380315 2.43307 0.364961 2.44488 0.350788 2.45433 0.336614 2.44961 0.318898 2.46024 0.307087 2.46496 0.288189 2.46496 0.275197 2.47559 0.259843 2.48268 0.245669 2.47914 0.227953 2.48622 0.21378 2.49095 0.196063 2.49685 0.0248032 0.344882zm-53.9587 -170.941c4.65237,7.73032 13.0595,12.1358 22.0571,11.6232 18,-1.17992 28.3016,-20.8051 19.1162,-36.2965l-0.636615 -1.07008 -1.37717 -2.28307 -1.38898 -2.2689 -1.39961 -2.25945 -1.41969 -2.25709 -1.42677 -2.24055 -1.44213 -2.23465 -1.45748 -2.22874 -1.46457 -2.21103 -1.47874 -2.20394 -1.49882 -2.20394 -1.50591 -2.18386 -1.51654 -2.17559 -1.53543 -2.17205 -1.54252 -2.15551 -1.55551 -2.14725 -1.57087 -2.14016 -1.58268 -2.12953 -1.59449 -2.12008 -1.01221 -1.32638c-11.9469,-15.5303 -36.437,-11.0032 -42.0626,7.80119 -2.14961,7.45985 -0.740552,15.2197 3.97205,21.4051l0.83504 1.09724 1.42205 1.88858 1.41024 1.89803 1.39843 1.9063 1.39016 1.91811 1.37953 1.92638 1.36299 1.92874 1.35591 1.9441 1.34528 1.95236 1.32638 1.95118 1.32047 1.97008 1.31339 1.97953 1.29449 1.97835 1.28386 1.99134 1.27559 2.00197 1.25906 2.00433 1.25079 2.01851 1.24016 2.02559 1.22362 2.02795 0.636615 1.07008zm-124.322 -129.291c7.32993,4.68898 16.461,5.04685 24.1618,1.02047 16.2118,-8.70591 17.2217,-31.4398 1.74213,-41.4307l-1.99016 -1.28386 -2.24055 -1.42677 -2.25709 -1.41969 -2.25945 -1.39961 -2.2689 -1.38898 -2.28307 -1.37717 -2.28662 -1.36181 -2.29488 -1.34646 -2.31024 -1.33937 -2.31496 -1.32047 -2.32441 -1.30984 -2.33622 -1.29567 -2.33622 -1.27795 -2.35276 -1.26969 -2.35866 -1.25315 -2.36693 -1.24016 -2.37756 -1.22717 -2.3811 -1.20945 -2.39173 -1.19882 -0.344882 -0.170079c-10.5106,-5.07756 -22.9654,-2.04567 -29.9032,7.35709 -8.81812,12.111 -4.64764,29.1461 8.80394,35.7579l0.080315 0.0401575 2.13189 1.06654 2.12599 1.08189 2.11536 1.09016 2.10945 1.10551 2.10118 1.11614 2.09055 1.12795 2.09291 1.14567 2.07638 1.15158 2.06929 1.16575 2.06457 1.17874 2.05276 1.18819 2.04921 1.20473 2.04331 1.21536 2.02795 1.22362 2.02559 1.24016 2.01851 1.25079 2.00433 1.25906 2.00197 1.27559 1.99016 1.28386z"/>
  <g id="_390303352">
   <g>
    <g>
     <path id="_390305944" class="fil4" d="M891.04 1461.43c-33.6307,21.8339 -48.3567,67.7339 -67.6619,122.574l401.244 0c-19.2118,-55.0441 -33.7418,-101.284 -67.7398,-122.574 -60.7004,-38.0091 -97.2296,-47.1142 -133.048,-47.6032 -36.6319,-0.498426 -72.528,8.47323 -132.795,47.6032z"/>
     <path id="_390305440" class="fil5" d="M1078.25 1422.65c-20.0055,-6.38623 -37.291,-8.59135 -54.4111,-8.8252 -18.7547,-0.255118 -37.3205,1.97362 -59.0599,9.46064 -0.50315,1.71142 -0.768898,3.46536 -0.768898,5.25473 0,17.7602 25.7894,32.1591 57.6036,32.1591 31.8142,0 57.6036,-14.3988 57.6036,-32.1591 0,-2.0126 -0.334252,-3.98032 -0.967324,-5.89016z"/>
    </g>
    <path id="_390305992" class="fil6" d="M1155.98 1205.99c7.47638,1.66536 10.415,17.0421 6.56457,34.3536 -3.8563,17.3091 -13.037,29.9918 -20.511,28.3264 -7.47402,-1.66181 -10.4114,-17.0433 -6.56339,-34.3524 3.85512,-17.3079 13.0358,-29.9918 20.5099,-28.3276z"/>
    <path id="_390305920" class="fil6" d="M975.512 1279.35l96.9792 0 0 140.275c0,47.3433 -96.9804,52.787 -96.9804,0l0.0011811 -140.275z"/>
    <path id="_390305824" class="fil6" d="M892.156 1205.99c-7.47402,1.66536 -10.4138,17.0421 -6.56339,34.3536 3.85276,17.3091 13.0358,29.9918 20.5122,28.3264 7.47048,-1.66181 10.4102,-17.0433 6.55867,-34.3524 -3.8504,-17.3079 -13.0311,-29.9918 -20.5075,-28.3276z"/>
    <path id="_390304864" class="fil7" d="M1024 1112.63c169.513,0 142.401,184.815 59.0965,249.368 -37.1032,28.7481 -79.6406,29.217 -117.091,0.843308 -84.1619,-63.7666 -112.265,-250.21 57.9945,-250.211z"/>
    <path id="_390304960" class="fil8" d="M966.78 1139.87c-33.2221,14.1225 -46.7552,56.7508 -54.443,85.4776 -11.1721,41.7225 -4.87441,38.1425 -19.7658,6.34843 -14.8949,-31.7906 21.5906,-168.891 128.105,-168.891 106.513,0 150.119,105.47 135.233,163.091 -14.8961,57.626 -14.8961,43.937 -24.2079,0.227953 -23.9386,-112.426 -142.913,24.1559 -164.921,-86.2548z"/>
   </g>
   <g>
    <g>
     <path id="_390304840" class="fil9" d="M543.971 840.535c-30.3118,19.6795 -43.5851,61.05 -60.9839,110.478l361.646 0c-17.315,-49.6122 -30.411,-91.2887 -61.0536,-110.478 -54.7099,-34.2579 -87.6355,-42.4642 -119.919,-42.9048 -33.0166,-0.45 -65.3705,7.63701 -119.689,42.9048z"/>
     <path id="_390304888" class="fil10" d="M787.092 597.791c6.98504,1.55669 9.73111,15.9248 6.13347,32.1012 -3.60355,16.1728 -12.1819,28.024 -19.1669,26.4673 -6.98268,-1.55197 -9.72757,-15.9248 -6.13229,-32.0988 3.60236,-16.1728 12.1807,-28.024 19.1658,-26.4697z"/>
     <path id="_390305200" class="fil10" d="M618.465 666.341l90.6178 0 0 131.075c0,44.237 -90.619,49.3229 -90.619,0l0.0011811 -131.075z"/>
     <path id="_390304936" class="fil10" d="M540.577 597.791c-6.98386,1.55669 -9.73111,15.9248 -6.13347,32.1012 3.6,16.1728 12.1807,28.024 19.1669,26.4673 6.9815,-1.55197 9.72757,-15.9248 6.12874,-32.0988 -3.59882,-16.1728 -12.1772,-28.024 -19.1622,-26.4697z"/>
     <path id="_390303832" class="fil7" d="M663.774 510.563c191.908,0 114.115,253.504 -0.0011811,253.504 -114.111,0 -191.91,-253.503 0.0011811,-253.504z"/>
     <path id="_390304384" class="fil11" d="M610.306 536.011c-31.0429,13.1953 -43.6878,53.028 -50.8713,79.8709 -10.4398,38.9859 -4.55552,35.6398 -18.4689,5.9315 -13.9181,-29.7047 20.1744,-157.813 119.701,-157.813 99.5268,0 140.273,98.5524 126.363,152.394 -13.9193,53.8465 -13.9193,41.0551 -22.6193,0.21378 -22.3701,-105.052 -133.54,22.5709 -154.104,-80.5973z"/>
     <path id="_390304264" class="fil12" d="M653.852 877.337l-5.23819 73.676 30.1807 0 -5.23701 -73.6713 32.0114 -76.6784c-29.9693,-0.53504 -53.954,-0.467717 -83.7213,0l32.0044 76.6737z"/>
     <polygon id="_390304288" class="fil13" points="618.338,773.437 589.769,801.757 584.543,858.276 662.619,800.527 "/>
     <polygon id="_390304480" class="fil13" points="708.908,773.437 737.475,801.757 742.703,858.276 664.625,800.527 "/>
    </g>
    <g>
     <path id="_390303928" class="fil14" d="M1262.59 842.74c-30.489,19.7941 -43.839,61.4067 -61.3406,111.124l363.763 0c-17.4165,-49.9028 -30.5894,-91.8237 -61.4115,-111.124 -55.03,-34.4587 -88.1481,-42.7134 -120.62,-43.1563 -33.2103,-0.452363 -65.7532,7.6819 -120.391,43.1563z"/>
     <path id="_390304168" class="fil10" d="M1337.52 667.525l91.1481 0 0 131.843c0,44.4957 -91.1493,49.6122 -91.1493,0l0.0011811 -131.843z"/>
     <path id="_390303976" class="fil15" d="M1383.1 510.834c193.032,0 114.783,254.99 -0.0011811,254.99 -114.778,0 -193.034,-254.988 0.0011811,-254.99z"/>
     <path id="_390304456" class="fil8" d="M1437 536.432c31.2248,13.2732 43.9441,53.3386 51.1701,80.3386 10.5,39.2138 4.5815,35.8488 18.5764,5.96575 13.9996,-29.8784 -20.2925,-158.737 -120.402,-158.737 -100.11,0 -141.095,99.1288 -127.103,153.287 14.0008,54.1607 14.0008,41.2949 22.7528,0.21378 22.5,-105.666 134.321,22.7043 155.006,-81.0686z"/>
     <path id="_390303496" class="fil10" d="M1507.14 598.575c7.02756,1.56496 9.78898,16.0169 6.17008,32.289 -3.62481,16.2673 -12.2528,28.187 -19.2791,26.6221 -7.02402,-1.56142 -9.78544,-16.0181 -6.16772,-32.2866 3.62244,-16.2673 12.2516,-28.1894 19.2768,-26.6244z"/>
     <path id="_390303472" class="fil10" d="M1259.18 598.575c-7.02402,1.56496 -9.7878,16.0169 -6.16772,32.289 3.62008,16.2673 12.2516,28.187 19.278,26.6221 7.02166,-1.56142 9.78426,-16.0181 6.16418,-32.2866 -3.6189,-16.2673 -12.248,-28.1894 -19.2744,-26.6244z"/>
     <path id="_390303184" class="fil16" d="M1373.12 879.758l-5.2689 74.106 30.3579 0 -5.26772 -74.1012 32.1992 -77.1284c-30.1453,-0.538583 -54.2705,-0.47126 -84.2127,0l32.1922 77.1237z"/>
     <polygon id="_390303568" class="fil17" points="1337.39,775.249 1308.66,803.734 1303.4,860.585 1381.93,802.497 "/>
     <polygon id="_390303592" class="fil17" points="1428.49,775.249 1457.23,803.734 1462.49,860.585 1383.95,802.497 "/>
    </g>
   </g>
  </g>
 </g>
</svg>
